{
    "asset" : {
        "generator" : "Khronos glTF Blender I/O v1.3.48",
        "version" : "2.0"
    },
    "scene" : 0,
    "scenes" : [
        {
            "name" : "Scene",
            "nodes" : [
                0,
                1,
                2,
                3,
                4,
                5,
                6,
                7,
                8
            ]
        }
    ],
    "nodes" : [
        {
            "name" : "Light",
            "rotation" : [
                0.16907575726509094,
                0.7558803558349609,
                -0.27217137813568115,
                0.570947527885437
            ],
            "translation" : [
                4.076245307922363,
                5.903861999511719,
                -1.0054539442062378
            ]
        },
        {
            "name" : "Camera",
            "rotation" : [
                0.483536034822464,
                0.33687159419059753,
                -0.20870360732078552,
                0.7804827094078064
            ],
            "translation" : [
                7.358891487121582,
                4.958309173583984,
                6.925790786743164
            ]
        },
        {
            "mesh" : 0,
            "name" : "Cylinder",
            "scale" : [
                3.0775885581970215,
                0.7024903893470764,
                3.0775885581970215
            ]
        },
        {
            "mesh" : 1,
            "name" : "Cylinder.001",
            "scale" : [
                2.858668804168701,
                0.035936951637268066,
                2.858668804168701
            ],
            "translation" : [
                1.6071958541870117,
                -0.7276245951652527,
                -0.03219453990459442
            ]
        },
        {
            "mesh" : 2,
            "name" : "Sphere",
            "rotation" : [
                0,
                -0.15879668295383453,
                0,
                0.9873113036155701
            ],
            "scale" : [
                0.21258249878883362,
                0.21258249878883362,
                0.11609451472759247
            ],
            "translation" : [
                1.4136860370635986,
                -0.5323192477226257,
                -2.739043712615967
            ]
        },
        {
            "mesh" : 3,
            "name" : "Cylinder.003",
            "scale" : [
                3.102410078048706,
                0.6410563588142395,
                3.102410078048706
            ],
            "translation" : [
                0,
                0.6933346390724182,
                0
            ]
        },
        {
            "mesh" : 4,
            "name" : "Det bl\u00e5 gymnasium_Vestfyn_NEG",
            "rotation" : [
                -0.7135857343673706,
                0.012024786323308945,
                0.7004197239875793,
                0.0079350546002388
            ],
            "translation" : [
                -0.07446086406707764,
                0.5835846662521362,
                0
            ]
        },
        {
            "mesh" : 5,
            "name" : "Det bl\u00e5 gymnasium_Vestfyn",
            "rotation" : [
                -0.02644328773021698,
                0.7066121697425842,
                -0.7066121697425842,
                -0.02644328586757183
            ],
            "translation" : [
                -0.26488643884658813,
                0.7593128681182861,
                -3.151812791824341
            ]
        },
        {
            "mesh" : 6,
            "name" : "RedDotFin",
            "rotation" : [
                0.5,
                0.5,
                -0.5,
                0.4999999701976776
            ],
            "translation" : [
                3.1507256031036377,
                0.7352898120880127,
                0
            ]
        }
    ],
    "materials" : [
        {
            "doubleSided" : true,
            "emissiveFactor" : [
                0,
                0,
                0
            ],
            "name" : "Material.002",
            "pbrMetallicRoughness" : {
                "baseColorTexture" : {
                    "index" : 0,
                    "texCoord" : 0
                },
                "metallicFactor" : 0,
                "roughnessFactor" : 0.5
            }
        },
        {
            "doubleSided" : true,
            "emissiveFactor" : [
                0,
                0,
                0
            ],
            "name" : "Material",
            "pbrMetallicRoughness" : {
                "baseColorTexture" : {
                    "index" : 1,
                    "texCoord" : 0
                },
                "metallicFactor" : 0,
                "roughnessFactor" : 0.5
            }
        },
        {
            "doubleSided" : true,
            "emissiveFactor" : [
                0,
                0,
                0
            ],
            "name" : "Material.003",
            "pbrMetallicRoughness" : {
                "baseColorTexture" : {
                    "index" : 2,
                    "texCoord" : 0
                },
                "metallicFactor" : 0,
                "roughnessFactor" : 0.5
            }
        },
        {
            "doubleSided" : true,
            "emissiveFactor" : [
                0,
                0,
                0
            ],
            "name" : "Material.001",
            "pbrMetallicRoughness" : {
                "baseColorTexture" : {
                    "index" : 3,
                    "texCoord" : 0
                },
                "metallicFactor" : 0,
                "roughnessFactor" : 0.5
            }
        },
        {
            "alphaMode" : "BLEND",
            "doubleSided" : true,
            "emissiveFactor" : [
                0,
                0,
                0
            ],
            "name" : "Det bl\u00e5 gymnasium_Vestfyn_NEG",
            "pbrMetallicRoughness" : {
                "baseColorTexture" : {
                    "index" : 4,
                    "texCoord" : 0
                },
                "metallicFactor" : 0,
                "roughnessFactor" : 0.5
            }
        },
        {
            "alphaMode" : "BLEND",
            "doubleSided" : true,
            "emissiveFactor" : [
                0,
                0,
                0
            ],
            "name" : "Det bl\u00e5 gymnasium_Vestfyn",
            "pbrMetallicRoughness" : {
                "baseColorTexture" : {
                    "index" : 5,
                    "texCoord" : 0
                },
                "metallicFactor" : 0,
                "roughnessFactor" : 0.5
            }
        },
        {
            "alphaMode" : "BLEND",
            "doubleSided" : true,
            "emissiveFactor" : [
                0,
                0,
                0
            ],
            "name" : "RedDotFin",
            "pbrMetallicRoughness" : {
                "baseColorTexture" : {
                    "index" : 6,
                    "texCoord" : 0
                },
                "metallicFactor" : 0,
                "roughnessFactor" : 1
            }
        }
    ],
    "meshes" : [
        {
            "name" : "Cylinder",
            "primitives" : [
                {
                    "attributes" : {
                        "POSITION" : 0,
                        "NORMAL" : 1,
                        "TEXCOORD_0" : 2
                    },
                    "indices" : 3,
                    "material" : 0
                }
            ]
        },
        {
            "name" : "Cylinder.002",
            "primitives" : [
                {
                    "attributes" : {
                        "POSITION" : 4,
                        "NORMAL" : 5,
                        "TEXCOORD_0" : 6
                    },
                    "indices" : 7,
                    "material" : 1
                }
            ]
        },
        {
            "name" : "Sphere",
            "primitives" : [
                {
                    "attributes" : {
                        "POSITION" : 8,
                        "NORMAL" : 9,
                        "TEXCOORD_0" : 10
                    },
                    "indices" : 11,
                    "material" : 2
                }
            ]
        },
        {
            "name" : "Cylinder.005",
            "primitives" : [
                {
                    "attributes" : {
                        "POSITION" : 12,
                        "NORMAL" : 13,
                        "TEXCOORD_0" : 14
                    },
                    "indices" : 15,
                    "material" : 3
                }
            ]
        },
        {
            "name" : "Det bl\u00e5 gymnasium_Vestfyn_NEG",
            "primitives" : [
                {
                    "attributes" : {
                        "POSITION" : 16,
                        "NORMAL" : 17,
                        "TEXCOORD_0" : 18
                    },
                    "indices" : 19,
                    "material" : 4
                }
            ]
        },
        {
            "name" : "Det bl\u00e5 gymnasium_Vestfyn",
            "primitives" : [
                {
                    "attributes" : {
                        "POSITION" : 20,
                        "NORMAL" : 21,
                        "TEXCOORD_0" : 22
                    },
                    "indices" : 23,
                    "material" : 5
                }
            ]
        },
        {
            "name" : "RedDotFin",
            "primitives" : [
                {
                    "attributes" : {
                        "POSITION" : 24,
                        "NORMAL" : 25,
                        "TEXCOORD_0" : 26
                    },
                    "indices" : 23,
                    "material" : 6
                }
            ]
        }
    ],
    "textures" : [
        {
            "source" : 0
        },
        {
            "source" : 1
        },
        {
            "source" : 2
        },
        {
            "source" : 3
        },
        {
            "source" : 4
        },
        {
            "source" : 5
        },
        {
            "source" : 6
        }
    ],
    "images" : [
        {
            "bufferView" : 4,
            "mimeType" : "image/png",
            "name" : "BlaaHat"
        },
        {
            "bufferView" : 9,
            "mimeType" : "image/png",
            "name" : "SortBand"
        },
        {
            "bufferView" : 14,
            "mimeType" : "image/png",
            "name" : "BlackBand"
        },
        {
            "bufferView" : 19,
            "mimeType" : "image/png",
            "name" : "HvidCap"
        },
        {
            "bufferView" : 24,
            "mimeType" : "image/png",
            "name" : "Det bl\u00e5 gymnasium_Vestfyn_NEG"
        },
        {
            "bufferView" : 29,
            "mimeType" : "image/png",
            "name" : "Det bl\u00e5 gymnasium_Vestfyn"
        },
        {
            "bufferView" : 33,
            "mimeType" : "image/png",
            "name" : "RedDotFin"
        }
    ],
    "accessors" : [
        {
            "bufferView" : 0,
            "componentType" : 5126,
            "count" : 4556,
            "max" : [
                1,
                1,
                1
            ],
            "min" : [
                -1,
                -1.0000008344650269,
                -1
            ],
            "type" : "VEC3"
        },
        {
            "bufferView" : 1,
            "componentType" : 5126,
            "count" : 4556,
            "type" : "VEC3"
        },
        {
            "bufferView" : 2,
            "componentType" : 5126,
            "count" : 4556,
            "type" : "VEC2"
        },
        {
            "bufferView" : 3,
            "componentType" : 5123,
            "count" : 21564,
            "type" : "SCALAR"
        },
        {
            "bufferView" : 5,
            "componentType" : 5126,
            "count" : 62,
            "max" : [
                0.7814651131629944,
                3.8562445640563965,
                0.9044878482818604
            ],
            "min" : [
                -0.004058480262756348,
                -20.370080947875977,
                -0.8894946575164795
            ],
            "type" : "VEC3"
        },
        {
            "bufferView" : 6,
            "componentType" : 5126,
            "count" : 62,
            "type" : "VEC3"
        },
        {
            "bufferView" : 7,
            "componentType" : 5126,
            "count" : 62,
            "type" : "VEC2"
        },
        {
            "bufferView" : 8,
            "componentType" : 5123,
            "count" : 174,
            "type" : "SCALAR"
        },
        {
            "bufferView" : 10,
            "componentType" : 5126,
            "count" : 1451,
            "max" : [
                13.106123924255371,
                1,
                51.438018798828125
            ],
            "min" : [
                -15.676437377929688,
                -1.000000238418579,
                -1
            ],
            "type" : "VEC3"
        },
        {
            "bufferView" : 11,
            "componentType" : 5126,
            "count" : 1451,
            "type" : "VEC3"
        },
        {
            "bufferView" : 12,
            "componentType" : 5126,
            "count" : 1451,
            "type" : "VEC2"
        },
        {
            "bufferView" : 13,
            "componentType" : 5123,
            "count" : 6528,
            "type" : "SCALAR"
        },
        {
            "bufferView" : 15,
            "componentType" : 5126,
            "count" : 4659,
            "max" : [
                1.0148792266845703,
                1.0209535360336304,
                1.0126062631607056
            ],
            "min" : [
                -1.0140628814697266,
                -1.0004733800888062,
                -1.0094603300094604
            ],
            "type" : "VEC3"
        },
        {
            "bufferView" : 16,
            "componentType" : 5126,
            "count" : 4659,
            "type" : "VEC3"
        },
        {
            "bufferView" : 17,
            "componentType" : 5126,
            "count" : 4659,
            "type" : "VEC2"
        },
        {
            "bufferView" : 18,
            "componentType" : 5123,
            "count" : 24858,
            "type" : "SCALAR"
        },
        {
            "bufferView" : 20,
            "componentType" : 5126,
            "count" : 4,
            "max" : [
                0.8471275568008423,
                0,
                0.5
            ],
            "min" : [
                -0.8471275568008423,
                0,
                -0.5
            ],
            "type" : "VEC3"
        },
        {
            "bufferView" : 21,
            "componentType" : 5126,
            "count" : 4,
            "type" : "VEC3"
        },
        {
            "bufferView" : 22,
            "componentType" : 5126,
            "count" : 4,
            "type" : "VEC2"
        },
        {
            "bufferView" : 23,
            "componentType" : 5123,
            "count" : 6,
            "type" : "SCALAR"
        },
        {
            "bufferView" : 25,
            "componentType" : 5126,
            "count" : 64,
            "max" : [
                0.5938631296157837,
                -0.03512383997440338,
                0.34489279985427856
            ],
            "min" : [
                -0.5775916576385498,
                -0.12710702419281006,
                -0.34489279985427856
            ],
            "type" : "VEC3"
        },
        {
            "bufferView" : 26,
            "componentType" : 5126,
            "count" : 64,
            "type" : "VEC3"
        },
        {
            "bufferView" : 27,
            "componentType" : 5126,
            "count" : 64,
            "type" : "VEC2"
        },
        {
            "bufferView" : 28,
            "componentType" : 5123,
            "count" : 96,
            "type" : "SCALAR"
        },
        {
            "bufferView" : 30,
            "componentType" : 5126,
            "count" : 64,
            "max" : [
                0.35726839303970337,
                0.031545981764793396,
                0.3599148690700531
            ],
            "min" : [
                -0.35726839303970337,
                -0.07438626885414124,
                -0.3599148094654083
            ],
            "type" : "VEC3"
        },
        {
            "bufferView" : 31,
            "componentType" : 5126,
            "count" : 64,
            "type" : "VEC3"
        },
        {
            "bufferView" : 32,
            "componentType" : 5126,
            "count" : 64,
            "type" : "VEC2"
        }
    ],
    "bufferViews" : [
        {
            "buffer" : 0,
            "byteLength" : 54672,
            "byteOffset" : 0
        },
        {
            "buffer" : 0,
            "byteLength" : 54672,
            "byteOffset" : 54672
        },
        {
            "buffer" : 0,
            "byteLength" : 36448,
            "byteOffset" : 109344
        },
        {
            "buffer" : 0,
            "byteLength" : 43128,
            "byteOffset" : 145792
        },
        {
            "buffer" : 0,
            "byteLength" : 20566,
            "byteOffset" : 188920
        },
        {
            "buffer" : 0,
            "byteLength" : 744,
            "byteOffset" : 209488
        },
        {
            "buffer" : 0,
            "byteLength" : 744,
            "byteOffset" : 210232
        },
        {
            "buffer" : 0,
            "byteLength" : 496,
            "byteOffset" : 210976
        },
        {
            "buffer" : 0,
            "byteLength" : 348,
            "byteOffset" : 211472
        },
        {
            "buffer" : 0,
            "byteLength" : 20566,
            "byteOffset" : 211820
        },
        {
            "buffer" : 0,
            "byteLength" : 17412,
            "byteOffset" : 232388
        },
        {
            "buffer" : 0,
            "byteLength" : 17412,
            "byteOffset" : 249800
        },
        {
            "buffer" : 0,
            "byteLength" : 11608,
            "byteOffset" : 267212
        },
        {
            "buffer" : 0,
            "byteLength" : 13056,
            "byteOffset" : 278820
        },
        {
            "buffer" : 0,
            "byteLength" : 20566,
            "byteOffset" : 291876
        },
        {
            "buffer" : 0,
            "byteLength" : 55908,
            "byteOffset" : 312444
        },
        {
            "buffer" : 0,
            "byteLength" : 55908,
            "byteOffset" : 368352
        },
        {
            "buffer" : 0,
            "byteLength" : 37272,
            "byteOffset" : 424260
        },
        {
            "buffer" : 0,
            "byteLength" : 49716,
            "byteOffset" : 461532
        },
        {
            "buffer" : 0,
            "byteLength" : 20559,
            "byteOffset" : 511248
        },
        {
            "buffer" : 0,
            "byteLength" : 48,
            "byteOffset" : 531808
        },
        {
            "buffer" : 0,
            "byteLength" : 48,
            "byteOffset" : 531856
        },
        {
            "buffer" : 0,
            "byteLength" : 32,
            "byteOffset" : 531904
        },
        {
            "buffer" : 0,
            "byteLength" : 12,
            "byteOffset" : 531936
        },
        {
            "buffer" : 0,
            "byteLength" : 42414,
            "byteOffset" : 531948
        },
        {
            "buffer" : 0,
            "byteLength" : 768,
            "byteOffset" : 574364
        },
        {
            "buffer" : 0,
            "byteLength" : 768,
            "byteOffset" : 575132
        },
        {
            "buffer" : 0,
            "byteLength" : 512,
            "byteOffset" : 575900
        },
        {
            "buffer" : 0,
            "byteLength" : 192,
            "byteOffset" : 576412
        },
        {
            "buffer" : 0,
            "byteLength" : 45180,
            "byteOffset" : 576604
        },
        {
            "buffer" : 0,
            "byteLength" : 768,
            "byteOffset" : 621784
        },
        {
            "buffer" : 0,
            "byteLength" : 768,
            "byteOffset" : 622552
        },
        {
            "buffer" : 0,
            "byteLength" : 512,
            "byteOffset" : 623320
        },
        {
            "buffer" : 0,
            "byteLength" : 167940,
            "byteOffset" : 623832
        }
    ],
    "buffers" : [
        {
            "byteLength" : 791772,
            "uri" : "data:application/octet-stream;base64,"
        }
    ]
}
